<svg width="300" height="120" viewBox="0 0 300 120" fill="none" xmlns="http://www.w3.org/2000/svg">
<path d="M300 0H0V120H300V0Z" fill="#222222"/>
<path d="M292.184 112.229C292.587 111.851 292.607 111.218 292.229 110.815C291.851 110.413 291.218 110.393 290.815 110.771C290.413 111.149 290.393 111.782 290.771 112.185C291.149 112.587 291.782 112.607 292.184 112.229Z" fill="#575868"/>
<path d="M272.271 112.137C272.623 111.712 272.563 111.081 272.138 110.729C271.712 110.377 271.082 110.437 270.73 110.863C270.378 111.288 270.437 111.918 270.863 112.27C271.288 112.623 271.919 112.563 272.271 112.137Z" fill="#575868"/>
<path d="M252.344 112.036C252.64 111.569 252.502 110.952 252.036 110.656C251.569 110.36 250.951 110.498 250.655 110.964C250.36 111.43 250.498 112.048 250.964 112.344C251.43 112.64 252.048 112.502 252.344 112.036Z" fill="#575868"/>
<path d="M232.405 111.926C232.64 111.426 232.426 110.83 231.926 110.595C231.426 110.36 230.83 110.575 230.595 111.074C230.36 111.574 230.575 112.17 231.074 112.405C231.574 112.64 232.17 112.426 232.405 111.926Z" fill="#575868"/>
<path d="M212.451 111.809C212.622 111.284 212.334 110.72 211.809 110.549C211.284 110.378 210.719 110.666 210.549 111.191C210.378 111.716 210.666 112.28 211.191 112.451C211.716 112.622 212.28 112.334 212.451 111.809Z" fill="#575868"/>
<path d="M192.483 111.687C192.586 111.145 192.23 110.621 191.688 110.518C191.145 110.414 190.621 110.77 190.518 111.313C190.414 111.855 190.77 112.379 191.313 112.482C191.855 112.586 192.379 112.23 192.483 111.687Z" fill="#575868"/>
<path d="M172.498 111.563C172.532 111.012 172.114 110.537 171.563 110.502C171.011 110.467 170.536 110.886 170.502 111.437C170.467 111.988 170.886 112.463 171.437 112.498C171.988 112.533 172.463 112.114 172.498 111.563Z" fill="#575868"/>
<path d="M152.498 111.437C152.464 110.886 151.989 110.467 151.437 110.502C150.886 110.537 150.467 111.012 150.502 111.563C150.537 112.114 151.012 112.533 151.563 112.498C152.114 112.463 152.533 111.988 152.498 111.437Z" fill="#575868"/>
<path d="M132.482 111.313C132.379 110.77 131.855 110.414 131.313 110.518C130.77 110.621 130.414 111.145 130.518 111.687C130.621 112.23 131.145 112.586 131.687 112.482C132.23 112.379 132.586 111.855 132.482 111.313Z" fill="#575868"/>
<path d="M112.451 111.191C112.28 110.666 111.716 110.378 111.191 110.549C110.666 110.72 110.378 111.284 110.549 111.809C110.72 112.334 111.284 112.622 111.809 112.451C112.334 112.28 112.622 111.716 112.451 111.191Z" fill="#575868"/>
<path d="M92.4049 111.074C92.1697 110.575 91.574 110.36 91.0743 110.595C90.5745 110.83 90.3601 111.426 90.5952 111.926C90.8304 112.426 91.4261 112.64 91.9258 112.405C92.4255 112.17 92.64 111.574 92.4049 111.074Z" fill="#575868"/>
<path d="M72.3442 110.964C72.0483 110.498 71.4304 110.36 70.9641 110.656C70.4978 110.952 70.3597 111.569 70.6556 112.036C70.9515 112.502 71.5694 112.64 72.0357 112.344C72.502 112.048 72.6402 111.43 72.3442 110.964Z" fill="#575868"/>
<path d="M52.2703 110.863C51.9183 110.437 51.2879 110.377 50.8624 110.73C50.4368 111.082 50.3772 111.712 50.7293 112.137C51.0813 112.563 51.7117 112.623 52.1372 112.271C52.5628 111.918 52.6223 111.288 52.2703 110.863Z" fill="#575868"/>
<path d="M32.1846 110.771C31.782 110.393 31.1491 110.413 30.771 110.815C30.393 111.218 30.4129 111.851 30.8155 112.229C31.2181 112.607 31.8509 112.587 32.229 112.185C32.607 111.782 32.5872 111.149 32.1846 110.771Z" fill="#575868"/>
<path d="M12.0877 110.691C11.6409 110.366 11.0156 110.465 10.6909 110.912C10.3663 111.359 10.4654 111.984 10.9122 112.309C11.359 112.634 11.9844 112.535 12.309 112.088C12.6336 111.641 12.5346 111.016 12.0877 110.691Z" fill="#575868"/>
<path d="M291.868 90.5702C291.354 90.3669 290.773 90.6184 290.57 91.1319C290.367 91.6454 290.618 92.2265 291.132 92.4298C291.645 92.6331 292.226 92.3816 292.43 91.8681C292.633 91.3546 292.381 90.7735 291.868 90.5702Z" fill="#575868"/>
<path d="M271.749 90.5314C271.214 90.3941 270.669 90.7164 270.531 91.2513C270.394 91.7863 270.716 92.3312 271.251 92.4686C271.786 92.6059 272.331 92.2836 272.468 91.7487C272.606 91.2138 272.283 90.6688 271.749 90.5314Z" fill="#575868"/>
<path d="M251.625 90.5079C251.077 90.4386 250.577 90.8267 250.508 91.3747C250.439 91.9226 250.827 92.4229 251.375 92.4921C251.923 92.5613 252.423 92.1732 252.492 91.6253C252.561 91.0774 252.173 90.5771 251.625 90.5079Z" fill="#575868"/>
<path d="M231.5 90.5C230.948 90.5 230.5 90.9477 230.5 91.5C230.5 92.0523 230.948 92.5 231.5 92.5C232.052 92.5 232.5 92.0523 232.5 91.5C232.5 90.9477 232.052 90.5 231.5 90.5Z" fill="#575868"/>
<path d="M211.375 90.5079C210.827 90.5771 210.439 91.0774 210.508 91.6253C210.577 92.1732 211.078 92.5613 211.626 92.4921C212.173 92.4229 212.562 91.9226 212.492 91.3746C212.423 90.8267 211.923 90.4386 211.375 90.5079Z" fill="#575868"/>
<path d="M191.251 90.5314C190.716 90.6688 190.394 91.2138 190.531 91.7487C190.669 92.2836 191.214 92.6059 191.749 92.4686C192.284 92.3313 192.606 91.7863 192.469 91.2513C192.331 90.7164 191.786 90.3941 191.251 90.5314Z" fill="#575868"/>
<path d="M171.132 90.5702C170.618 90.7735 170.367 91.3546 170.57 91.8681C170.773 92.3816 171.355 92.6331 171.868 92.4298C172.382 92.2265 172.633 91.6454 172.43 91.1319C172.226 90.6184 171.645 90.3669 171.132 90.5702Z" fill="#575868"/>
<path d="M151.018 90.6237C150.534 90.8897 150.357 91.4978 150.624 91.9817C150.89 92.4657 151.498 92.6424 151.982 92.3763C152.466 92.1102 152.642 91.5022 152.376 91.0182C152.11 90.5343 151.502 90.3576 151.018 90.6237Z" fill="#575868"/>
<path d="M130.912 90.691C130.466 91.0156 130.367 91.641 130.691 92.0878C131.016 92.5346 131.641 92.6337 132.088 92.309C132.535 91.9844 132.634 91.359 132.309 90.9122C131.985 90.4654 131.359 90.3664 130.912 90.691Z" fill="#575868"/>
<path d="M110.816 90.771C110.413 91.1491 110.393 91.782 110.771 92.1846C111.149 92.5872 111.782 92.607 112.185 92.229C112.587 91.8509 112.607 91.2181 112.229 90.8155C111.851 90.4129 111.218 90.393 110.816 90.771Z" fill="#575868"/>
<path d="M90.7293 90.8626C90.3772 91.2882 90.4368 91.9185 90.8624 92.2705C91.2879 92.6226 91.9183 92.563 92.2703 92.1375C92.6223 91.7119 92.5627 91.0816 92.1372 90.7295C91.7117 90.3775 91.0813 90.4371 90.7293 90.8626Z" fill="#575868"/>
<path d="M70.6559 90.9642C70.36 91.4305 70.4981 92.0484 70.9644 92.3444C71.4307 92.6403 72.0486 92.5022 72.3445 92.0359C72.6405 91.5695 72.5024 90.9516 72.036 90.6557C71.5697 90.3598 70.9518 90.4979 70.6559 90.9642Z" fill="#575868"/>
<path d="M50.5951 91.0742C50.36 91.5739 50.5745 92.1697 51.0742 92.4048C51.5739 92.64 52.1696 92.4255 52.4048 91.9258C52.6399 91.426 52.4255 90.8303 51.9257 90.5952C51.426 90.36 50.8303 90.5745 50.5951 91.0742Z" fill="#575868"/>
<path d="M30.5491 91.191C30.3785 91.7162 30.6659 92.2804 31.1912 92.4511C31.7164 92.6217 32.2806 92.3343 32.4512 91.809C32.6219 91.2838 32.3345 90.7196 31.8092 90.549C31.2839 90.3783 30.7198 90.6657 30.5491 91.191Z" fill="#575868"/>
<path d="M10.5175 91.3126C10.414 91.8551 10.7699 92.3788 11.3124 92.4823C11.8549 92.5858 12.3786 92.2299 12.4821 91.6874C12.5855 91.1449 12.2296 90.6212 11.6871 90.5177C11.1446 90.4142 10.621 90.7701 10.5175 91.3126Z" fill="#575868"/>
<path d="M290.502 71.5628C290.536 72.114 291.011 72.5327 291.563 72.4981C292.114 72.4634 292.533 71.9884 292.498 71.4372C292.463 70.886 291.988 70.4673 291.437 70.502C290.886 70.5367 290.467 71.0116 290.502 71.5628Z" fill="#575868"/>
<path d="M270.518 71.6874C270.621 72.2299 271.145 72.5858 271.687 72.4823C272.23 72.3788 272.586 71.8551 272.482 71.3126C272.379 70.7701 271.855 70.4142 271.313 70.5177C270.77 70.6212 270.414 71.1449 270.518 71.6874Z" fill="#575868"/>
<path d="M250.549 71.809C250.72 72.3343 251.284 72.6217 251.809 72.4511C252.334 72.2804 252.622 71.7162 252.451 71.191C252.28 70.6657 251.716 70.3783 251.191 70.5489C250.666 70.7196 250.378 71.2838 250.549 71.809Z" fill="#575868"/>
<path d="M230.595 71.9258C230.83 72.4255 231.426 72.64 231.926 72.4048C232.425 72.1697 232.64 71.5739 232.405 71.0742C232.17 70.5745 231.574 70.36 231.074 70.5952C230.574 70.8303 230.36 71.426 230.595 71.9258Z" fill="#575868"/>
<path d="M210.656 72.0359C210.952 72.5022 211.57 72.6403 212.036 72.3444C212.502 72.0484 212.64 71.4305 212.344 70.9642C212.048 70.4979 211.431 70.3598 210.964 70.6557C210.498 70.9516 210.36 71.5695 210.656 72.0359Z" fill="#575868"/>
<path d="M190.73 72.1374C191.082 72.5629 191.712 72.6225 192.138 72.2705C192.563 71.9185 192.623 71.2881 192.271 70.8626C191.919 70.437 191.288 70.3774 190.863 70.7295C190.437 71.0815 190.378 71.7119 190.73 72.1374Z" fill="#575868"/>
<path d="M170.815 72.229C171.218 72.607 171.851 72.5871 172.229 72.1845C172.607 71.782 172.587 71.1491 172.185 70.771C171.782 70.393 171.149 70.4129 170.771 70.8155C170.393 71.2181 170.413 71.8509 170.815 72.229Z" fill="#575868"/>
<path d="M150.912 72.309C151.359 72.6337 151.984 72.5346 152.309 72.0878C152.634 71.641 152.535 71.0156 152.088 70.691C151.641 70.3664 151.016 70.4654 150.691 70.9122C150.366 71.359 150.465 71.9844 150.912 72.309Z" fill="#575868"/>
<path d="M131.018 72.3763C131.502 72.6424 132.11 72.4658 132.376 71.9818C132.642 71.4978 132.466 70.8898 131.982 70.6237C131.498 70.3577 130.89 70.5343 130.624 71.0183C130.358 71.5022 130.534 72.1103 131.018 72.3763Z" fill="#575868"/>
<path d="M111.132 72.4298C111.646 72.6331 112.227 72.3816 112.43 71.8681C112.633 71.3546 112.382 70.7735 111.868 70.5702C111.355 70.3669 110.774 70.6184 110.57 71.1319C110.367 71.6454 110.619 72.2265 111.132 72.4298Z" fill="#575868"/>
<path d="M91.2515 72.4686C91.7864 72.6059 92.3314 72.2836 92.4687 71.7487C92.6061 71.2137 92.2838 70.6688 91.7489 70.5314C91.2139 70.3941 90.6689 70.7164 90.5316 71.2513C90.3942 71.7862 90.7165 72.3312 91.2515 72.4686Z" fill="#575868"/>
<path d="M71.3747 72.4921C71.9227 72.5614 72.423 72.1733 72.4922 71.6253C72.5614 71.0774 72.1733 70.5771 71.6254 70.5079C71.0775 70.4387 70.5772 70.8268 70.508 71.3747C70.4387 71.9226 70.8268 72.4229 71.3747 72.4921Z" fill="#575868"/>
<path d="M51.5 72.5C52.0523 72.5 52.5 72.0523 52.5 71.5C52.5 70.9477 52.0523 70.5 51.5 70.5C50.9477 70.5 50.5 70.9477 50.5 71.5C50.5 72.0523 50.9477 72.5 51.5 72.5Z" fill="#575868"/>
<path d="M31.6251 72.4921C32.173 72.4229 32.5611 71.9226 32.4919 71.3747C32.4227 70.8268 31.9224 70.4387 31.3744 70.5079C30.8265 70.5771 30.4384 71.0774 30.5077 71.6254C30.5769 72.1733 31.0772 72.5614 31.6251 72.4921Z" fill="#575868"/>
<path d="M11.7487 72.4686C12.2836 72.3312 12.6059 71.7862 12.4686 71.2513C12.3312 70.7164 11.7862 70.3941 11.2513 70.5314C10.7164 70.6687 10.3941 71.2137 10.5314 71.7487C10.6688 72.2836 11.2137 72.6059 11.7487 72.4686Z" fill="#575868"/>
<path d="M291.982 52.3763C292.466 52.1103 292.643 51.5022 292.376 51.0183C292.11 50.5343 291.502 50.3576 291.018 50.6237C290.534 50.8898 290.358 51.4978 290.624 51.9818C290.89 52.4657 291.498 52.6424 291.982 52.3763Z" fill="#575868"/>
<path d="M272.088 52.309C272.534 51.9844 272.633 51.359 272.309 50.9122C271.984 50.4654 271.359 50.3663 270.912 50.691C270.465 51.0156 270.366 51.641 270.691 52.0878C271.015 52.5346 271.641 52.6336 272.088 52.309Z" fill="#575868"/>
<path d="M252.184 52.229C252.587 51.8509 252.607 51.218 252.229 50.8154C251.851 50.4128 251.218 50.393 250.815 50.771C250.413 51.1491 250.393 51.7819 250.771 52.1845C251.149 52.5871 251.782 52.607 252.184 52.229Z" fill="#575868"/>
<path d="M232.271 52.1375C232.623 51.7119 232.563 51.0816 232.138 50.7295C231.712 50.3775 231.082 50.4371 230.73 50.8626C230.378 51.2881 230.437 51.9185 230.863 52.2705C231.288 52.6226 231.919 52.563 232.271 52.1375Z" fill="#575868"/>
<path d="M212.344 52.0358C212.64 51.5695 212.502 50.9516 212.036 50.6556C211.569 50.3597 210.951 50.4978 210.655 50.9641C210.36 51.4305 210.498 52.0484 210.964 52.3443C211.43 52.6402 212.048 52.5021 212.344 52.0358Z" fill="#575868"/>
<path d="M192.405 51.9258C192.64 51.4261 192.426 50.8303 191.926 50.5952C191.426 50.36 190.83 50.5745 190.595 51.0742C190.36 51.574 190.575 52.1697 191.074 52.4048C191.574 52.64 192.17 52.4255 192.405 51.9258Z" fill="#575868"/>
<path d="M172.451 51.809C172.622 51.2838 172.334 50.7196 171.809 50.5489C171.284 50.3783 170.719 50.6657 170.549 51.191C170.378 51.7162 170.666 52.2804 171.191 52.451C171.716 52.6217 172.28 52.3343 172.451 51.809Z" fill="#575868"/>
<path d="M152.483 51.6874C152.586 51.1449 152.23 50.6212 151.688 50.5177C151.145 50.4142 150.621 50.7701 150.518 51.3126C150.414 51.8551 150.77 52.3788 151.313 52.4823C151.855 52.5858 152.379 52.2299 152.483 51.6874Z" fill="#575868"/>
<path d="M132.498 51.5628C132.532 51.0116 132.114 50.5367 131.563 50.502C131.011 50.4673 130.536 50.886 130.502 51.4372C130.467 51.9884 130.886 52.4634 131.437 52.498C131.988 52.5327 132.463 52.114 132.498 51.5628Z" fill="#575868"/>
<path d="M112.498 51.4372C112.464 50.886 111.989 50.4673 111.437 50.5019C110.886 50.5366 110.467 51.0116 110.502 51.5628C110.537 52.114 111.012 52.5327 111.563 52.498C112.114 52.4633 112.533 51.9884 112.498 51.4372Z" fill="#575868"/>
<path d="M92.4823 51.3126C92.3788 50.7701 91.8551 50.4142 91.3126 50.5177C90.7701 50.6212 90.4142 51.1449 90.5177 51.6874C90.6212 52.2299 91.1449 52.5858 91.6874 52.4823C92.2299 52.3788 92.5858 51.8551 92.4823 51.3126Z" fill="#575868"/>
<path d="M72.451 51.191C72.2803 50.6657 71.7162 50.3783 71.1909 50.5489C70.6657 50.7196 70.3782 51.2838 70.5489 51.809C70.7196 52.3343 71.2837 52.6217 71.809 52.4511C72.3342 52.2804 72.6217 51.7162 72.451 51.191Z" fill="#575868"/>
<path d="M52.4049 51.0742C52.1697 50.5745 51.574 50.36 51.0743 50.5952C50.5745 50.8303 50.3601 51.4261 50.5952 51.9258C50.8304 52.4255 51.4261 52.64 51.9258 52.4048C52.4255 52.1697 52.64 51.574 52.4049 51.0742Z" fill="#575868"/>
<path d="M32.3442 50.9641C32.0483 50.4978 31.4304 50.3597 30.9641 50.6556C30.4978 50.9516 30.3597 51.5695 30.6556 52.0358C30.9515 52.5021 31.5694 52.6402 32.0357 52.3443C32.502 52.0484 32.6402 51.4305 32.3442 50.9641Z" fill="#575868"/>
<path d="M12.2703 50.8626C11.9183 50.4371 11.2879 50.3775 10.8624 50.7295C10.4368 51.0815 10.3772 51.7119 10.7293 52.1374C11.0813 52.563 11.7117 52.6226 12.1372 52.2705C12.5628 51.9185 12.6223 51.2881 12.2703 50.8626Z" fill="#575868"/>
<path d="M292.088 30.691C291.641 30.3663 291.016 30.4654 290.691 30.9122C290.366 31.359 290.465 31.9844 290.912 32.309C291.359 32.6336 291.984 32.5346 292.309 32.0878C292.634 31.641 292.535 31.0156 292.088 30.691Z" fill="#575868"/>
<path d="M271.982 30.6237C271.498 30.3576 270.89 30.5342 270.624 31.0182C270.358 31.5022 270.534 32.1102 271.018 32.3763C271.502 32.6423 272.11 32.4657 272.376 31.9817C272.642 31.4978 272.466 30.8897 271.982 30.6237Z" fill="#575868"/>
<path d="M251.868 30.5702C251.354 30.3669 250.773 30.6184 250.57 31.1319C250.367 31.6454 250.618 32.2265 251.132 32.4298C251.645 32.6331 252.226 32.3816 252.43 31.8681C252.633 31.3546 252.381 30.7735 251.868 30.5702Z" fill="#575868"/>
<path d="M231.749 30.5314C231.214 30.3941 230.669 30.7164 230.531 31.2513C230.394 31.7863 230.716 32.3312 231.251 32.4686C231.786 32.6059 232.331 32.2836 232.468 31.7487C232.606 31.2138 232.283 30.6688 231.749 30.5314Z" fill="#575868"/>
<path d="M211.625 30.5079C211.077 30.4386 210.577 30.8267 210.508 31.3747C210.439 31.9226 210.827 32.4229 211.375 32.4921C211.923 32.5613 212.423 32.1732 212.492 31.6253C212.561 31.0774 212.173 30.5771 211.625 30.5079Z" fill="#575868"/>
<path d="M191.5 30.5C190.948 30.5 190.5 30.9477 190.5 31.5C190.5 32.0523 190.948 32.5 191.5 32.5C192.052 32.5 192.5 32.0523 192.5 31.5C192.5 30.9477 192.052 30.5 191.5 30.5Z" fill="#575868"/>
<path d="M171.375 30.5079C170.827 30.5771 170.439 31.0774 170.508 31.6253C170.577 32.1732 171.078 32.5613 171.626 32.4921C172.173 32.4229 172.562 31.9226 172.492 31.3746C172.423 30.8267 171.923 30.4386 171.375 30.5079Z" fill="#575868"/>
<path d="M151.251 30.5314C150.716 30.6688 150.394 31.2138 150.531 31.7487C150.669 32.2836 151.214 32.6059 151.749 32.4686C152.284 32.3313 152.606 31.7863 152.469 31.2513C152.331 30.7164 151.786 30.3941 151.251 30.5314Z" fill="#575868"/>
<path d="M131.132 30.5702C130.618 30.7735 130.367 31.3546 130.57 31.8681C130.773 32.3816 131.355 32.6331 131.868 32.4298C132.382 32.2265 132.633 31.6454 132.43 31.1319C132.226 30.6184 131.645 30.3669 131.132 30.5702Z" fill="#575868"/>
<path d="M111.018 30.6237C110.534 30.8897 110.357 31.4978 110.624 31.9817C110.89 32.4657 111.498 32.6424 111.982 32.3763C112.466 32.1102 112.642 31.5022 112.376 31.0182C112.11 30.5343 111.502 30.3576 111.018 30.6237Z" fill="#575868"/>
<path d="M90.9124 30.691C90.4656 31.0156 90.3665 31.641 90.6912 32.0878C91.0158 32.5346 91.6411 32.6337 92.088 32.309C92.5348 31.9844 92.6338 31.359 92.3092 30.9122C91.9846 30.4654 91.3592 30.3664 90.9124 30.691Z" fill="#575868"/>
<path d="M70.8155 30.771C70.4129 31.1491 70.393 31.782 70.7711 32.1846C71.1492 32.5872 71.782 32.607 72.1846 32.229C72.5872 31.8509 72.6071 31.2181 72.229 30.8155C71.851 30.4129 71.2181 30.393 70.8155 30.771Z" fill="#575868"/>
<path d="M50.7293 30.8625C50.3772 31.2881 50.4368 31.9184 50.8624 32.2705C51.2879 32.6225 51.9183 32.5629 52.2703 32.1374C52.6223 31.7119 52.5627 31.0815 52.1372 30.7295C51.7117 30.3774 51.0813 30.437 50.7293 30.8625Z" fill="#575868"/>
<path d="M30.6559 30.9642C30.36 31.4305 30.4981 32.0484 30.9644 32.3444C31.4307 32.6403 32.0486 32.5022 32.3445 32.0359C32.6405 31.5695 32.5024 30.9516 32.036 30.6557C31.5697 30.3598 30.9518 30.4979 30.6559 30.9642Z" fill="#575868"/>
<path d="M10.5951 31.0742C10.36 31.5739 10.5745 32.1697 11.0742 32.4048C11.5739 32.64 12.1696 32.4255 12.4048 31.9258C12.6399 31.426 12.4255 30.8303 11.9257 30.5952C11.426 30.36 10.8303 30.5745 10.5951 31.0742Z" fill="#575868"/>
<path d="M290.518 11.3126C290.414 11.8551 290.77 12.3788 291.313 12.4823C291.855 12.5858 292.379 12.2299 292.483 11.6874C292.586 11.1449 292.23 10.6212 291.688 10.5177C291.145 10.4142 290.621 10.7701 290.518 11.3126Z" fill="#575868"/>
<path d="M270.502 11.4372C270.468 11.9884 270.886 12.4633 271.437 12.498C271.989 12.5327 272.464 12.114 272.498 11.5628C272.533 11.0116 272.114 10.5366 271.563 10.502C271.012 10.4673 270.537 10.886 270.502 11.4372Z" fill="#575868"/>
<path d="M250.502 11.5628C250.536 12.114 251.011 12.5327 251.563 12.4981C252.114 12.4634 252.533 11.9884 252.498 11.4372C252.463 10.886 251.988 10.4673 251.437 10.502C250.886 10.5367 250.467 11.0116 250.502 11.5628Z" fill="#575868"/>
<path d="M230.518 11.6874C230.621 12.2299 231.145 12.5858 231.687 12.4823C232.23 12.3788 232.586 11.8551 232.482 11.3126C232.379 10.7701 231.855 10.4142 231.313 10.5177C230.77 10.6212 230.414 11.1449 230.518 11.6874Z" fill="#575868"/>
<path d="M210.549 11.809C210.72 12.3343 211.284 12.6217 211.809 12.4511C212.334 12.2804 212.622 11.7162 212.451 11.191C212.28 10.6657 211.716 10.3783 211.191 10.5489C210.666 10.7196 210.378 11.2838 210.549 11.809Z" fill="#575868"/>
<path d="M190.595 11.9258C190.83 12.4255 191.426 12.64 191.926 12.4048C192.425 12.1697 192.64 11.5739 192.405 11.0742C192.17 10.5745 191.574 10.36 191.074 10.5952C190.574 10.8303 190.36 11.426 190.595 11.9258Z" fill="#575868"/>
<path d="M170.656 12.0359C170.952 12.5022 171.57 12.6403 172.036 12.3444C172.502 12.0484 172.64 11.4305 172.344 10.9642C172.048 10.4979 171.431 10.3598 170.964 10.6557C170.498 10.9516 170.36 11.5695 170.656 12.0359Z" fill="#575868"/>
<path d="M150.73 12.1374C151.082 12.5629 151.712 12.6225 152.138 12.2705C152.563 11.9185 152.623 11.2881 152.271 10.8626C151.919 10.437 151.288 10.3774 150.863 10.7295C150.437 11.0815 150.378 11.7119 150.73 12.1374Z" fill="#575868"/>
<path d="M130.815 12.229C131.218 12.607 131.851 12.5871 132.229 12.1845C132.607 11.782 132.587 11.1491 132.185 10.771C131.782 10.393 131.149 10.4129 130.771 10.8155C130.393 11.2181 130.413 11.8509 130.815 12.229Z" fill="#575868"/>
<path d="M110.912 12.309C111.359 12.6337 111.984 12.5346 112.309 12.0878C112.634 11.641 112.535 11.0156 112.088 10.691C111.641 10.3664 111.016 10.4654 110.691 10.9122C110.366 11.359 110.465 11.9844 110.912 12.309Z" fill="#575868"/>
<path d="M91.0183 12.3763C91.5022 12.6424 92.1103 12.4658 92.3763 11.9818C92.6424 11.4978 92.4657 10.8898 91.9818 10.6237C91.4978 10.3577 90.8898 10.5343 90.6237 11.0183C90.3576 11.5022 90.5343 12.1103 91.0183 12.3763Z" fill="#575868"/>
<path d="M71.132 12.4298C71.6455 12.6331 72.2266 12.3816 72.4299 11.8681C72.6332 11.3546 72.3818 10.7735 71.8683 10.5702C71.3548 10.3669 70.7737 10.6184 70.5704 11.1319C70.367 11.6454 70.6185 12.2265 71.132 12.4298Z" fill="#575868"/>
<path d="M51.2515 12.4686C51.7864 12.6059 52.3314 12.2836 52.4687 11.7487C52.6061 11.2137 52.2838 10.6688 51.7489 10.5314C51.2139 10.3941 50.6689 10.7164 50.5316 11.2513C50.3942 11.7862 50.7165 12.3312 51.2515 12.4686Z" fill="#575868"/>
<path d="M31.3747 12.4921C31.9227 12.5614 32.423 12.1733 32.4922 11.6253C32.5614 11.0774 32.1733 10.5771 31.6254 10.5079C31.0775 10.4387 30.5772 10.8268 30.508 11.3747C30.4387 11.9226 30.8268 12.4229 31.3747 12.4921Z" fill="#575868"/>
<path d="M11.5 12.5C12.0523 12.5 12.5 12.0523 12.5 11.5C12.5 10.9477 12.0523 10.5 11.5 10.5C10.9477 10.5 10.5 10.9477 10.5 11.5C10.5 12.0523 10.9477 12.5 11.5 12.5Z" fill="#575868"/>
<path d="M135.088 69.3961C134.767 69.3961 134.42 69.3132 134.179 68.9804L123.857 55.1252V69.2577H121.503V51.8551C121.503 51.1627 122.065 50.6084 122.707 50.6084C123.081 50.6084 123.403 50.7191 123.642 51.0518L133.938 64.8796V50.8022H136.291V68.1769C136.291 68.8975 135.73 69.3961 135.088 69.3961Z" fill="white"/>
<path d="M154.557 69.5624C152.204 69.5624 149.743 69.0634 147.443 68.1771L148.005 66.1815C150.118 66.8744 152.417 67.3732 154.557 67.3732C157.525 67.3732 159.076 66.2924 159.076 64.7686C159.076 63.3828 157.872 62.6901 153.727 60.6948C149.583 58.6997 147.952 57.4252 147.952 54.9308C147.952 51.8001 150.305 50.5247 154.744 50.5247C156.589 50.5247 159.423 50.9131 161.055 51.412L160.681 53.4623C158.888 53.0191 156.643 52.7144 154.797 52.7144C151.669 52.7144 150.385 53.3236 150.385 54.8481C150.385 56.3441 151.321 56.9816 155.706 59.0601C160.333 61.2493 161.509 62.3579 161.509 64.6298C161.509 67.9278 158.46 69.5624 154.557 69.5624Z" fill="white"/>
<path d="M172.662 50.8022H175.095V69.2575H172.662V50.8022Z" fill="white"/>
<path d="M195.794 60.8891H189.75V67.1521H195.794C197.853 67.1521 199.109 65.8217 199.109 63.9648C199.109 62.219 197.799 60.8891 195.794 60.8891ZM194.617 52.9082H189.75V58.8108H194.617C196.569 58.8108 197.986 57.5359 197.986 55.7626C197.986 54.0168 196.756 52.9082 194.617 52.9082ZM195.82 69.2576H188.547C187.851 69.2576 187.316 68.7031 187.316 68.0107V52.0494C187.316 51.384 187.851 50.8024 188.547 50.8024H194.564C198.254 50.8024 200.446 52.6589 200.446 55.5687C200.446 57.1479 199.537 58.6167 198.146 59.4758C200.206 60.1132 201.596 61.8588 201.596 63.9648C201.596 66.9021 199.216 69.2576 195.82 69.2576Z" fill="white"/>
<path d="M213.282 69.2576C212.615 69.2576 212.08 68.6756 212.08 68.0107V50.8024H214.513V67.0132H224.193V69.2576H213.282Z" fill="white"/>
<path d="M240.781 69.5624C235.807 69.5624 232.812 67.6782 232.812 63.8819C232.812 62.0806 233.802 60.3625 235.727 59.559C234.176 58.5613 233.374 57.148 233.374 55.5962C233.374 52.1603 235.969 50.5247 240.835 50.5247C242.466 50.5247 244.766 50.719 246.692 51.1627L246.424 53.213C244.392 52.8803 242.493 52.6869 240.648 52.6869C237.492 52.6869 235.807 53.5732 235.807 55.7072C235.807 57.3977 237.358 58.7276 239.418 58.7276H243.589C244.177 58.7276 244.632 59.1988 244.632 59.7805C244.632 60.39 244.177 60.8611 243.589 60.8611H239.097C236.743 60.8611 235.247 62.0524 235.247 63.8819C235.247 66.5697 237.68 67.3732 240.728 67.3732C242.386 67.3732 244.632 67.1521 246.45 66.7085L246.799 68.7311C245.06 69.2302 242.787 69.5624 240.781 69.5624Z" fill="white"/>
<path d="M103.394 54.2635L107.656 65.163L101.22 59.9089L103.394 54.2635ZM110.966 67.6742L104.411 51.3259C104.224 50.8548 103.849 50.6053 103.394 50.6053C102.94 50.6053 102.539 50.8548 102.352 51.3259L95.1567 69.2577H97.6176L100.466 61.8648L108.965 68.9804C109.307 69.2665 109.554 69.3961 109.875 69.3961C110.516 69.3961 111.078 68.8975 111.078 68.1771C111.078 68.0602 111.038 67.8742 110.966 67.6742Z" fill="white"/>
<path d="M86.9502 59.9751C86.9502 69.3505 79.3506 76.95 69.9751 76.95C60.6004 76.95 53 69.3505 53 59.9751C53 50.6004 60.6004 43 69.9751 43C79.3506 43 86.9502 50.6004 86.9502 59.9751ZM78.0888 66.4267L71.3318 50.1654C71.1389 49.6964 70.7532 49.4483 70.2851 49.4483C69.8161 49.4483 69.4023 49.6964 69.2094 50.1654L61.7931 68.002H64.3301L67.2659 60.6479L76.027 67.7259C76.3794 68.0108 76.6336 68.1396 76.9641 68.1396C77.626 68.1396 78.2045 67.6434 78.2045 66.9272C78.2045 66.8107 78.1633 66.6257 78.0888 66.4267ZM70.2851 53.0872L74.6779 63.9291L68.0426 58.7025L70.2851 53.0872Z" fill="white"/>
</svg>
